<svg xmlns="http://www.w3.org/2000/svg" width="103" height="77" viewBox="0 0 103 77">
  <g id="그룹_12" data-name="그룹 12" transform="translate(2166 -2082)">
    <g id="그룹_11" data-name="그룹 11" transform="translate(-2166 2082)">
      <g id="합치기_1" data-name="합치기 1" fill="#fff">
        <path d="M 80.50594329833984 76.5 C 79.06566619873047 76.5 77.69214630126953 75.74482727050781 76.53388214111328 74.31611633300781 L 76.38379669189453 74.13099670410156 L 76.14547729492188 74.13099670410156 L 32.77407836914063 74.13099670410156 L 32.53573226928711 74.13099670410156 L 32.38565444946289 74.316162109375 C 31.22761344909668 75.74484252929688 29.8542537689209 76.5 28.41405296325684 76.5 C 26.27751922607422 76.5 24.25822639465332 74.78397369384766 23.0124397277832 71.90962982177734 L 22.86307907104492 71.56501007080078 L 22.49050712585449 71.61248016357422 C 21.71151924133301 71.71169281005859 20.91614723205566 71.76200103759766 20.12649345397949 71.76200103759766 C 17.48042678833008 71.76200103759766 14.91345310211182 71.212890625 12.49687957763672 70.12993621826172 C 10.16051959991455 69.08293151855469 8.061639785766602 67.58344268798828 6.258573532104492 65.67311859130859 C 4.453586578369141 63.76078796386719 3.036279916763306 61.53348159790039 2.046013355255127 59.05308151245117 C 1.020159959793091 56.4835205078125 0.5 53.75350570678711 0.5 50.9388542175293 C 0.5 42.630615234375 5.143519878387451 35.12738800048828 12.32990646362305 31.82352066040039 L 12.57941341400146 31.70881271362305 L 12.61647987365723 31.43670654296875 C 13.76838684082031 22.97981262207031 18.50002670288086 15.17409324645996 25.9398136138916 9.457453727722168 C 29.61599922180176 6.632719993591309 33.8018684387207 4.423693180084229 38.38114547729492 2.891746759414673 C 43.12514495849609 1.304706692695618 48.13639831542969 0.5 53.27568054199219 0.5 C 63.84538650512695 0.5 73.87767791748047 3.938093423843384 81.52450561523438 10.18094635009766 C 85.23764038085938 13.21234703063965 88.21766662597656 16.75861358642578 90.38179016113281 20.72121238708496 C 92.61007690429688 24.80133247375488 93.87982940673828 29.16105270385742 94.15574645996094 33.67926788330078 L 94.16965484619141 33.90694808959961 L 94.35072326660156 34.04568099975586 C 96.81844329833984 35.93638610839844 98.86695861816406 38.44462585449219 100.2748031616211 41.29925155639648 C 101.7305297851563 44.25097274780273 102.5 47.58429336547852 102.5 50.9388542175293 C 102.5 53.44629287719727 102.0844650268555 55.8976936340332 101.2649307250977 58.22494506835938 C 100.4735565185547 60.47226715087891 99.32802581787109 62.54458618164063 97.86013031005859 64.38437652587891 C 94.90798950195313 68.08441162109375 90.81987762451172 70.58893585205078 86.348876953125 71.43654632568359 L 86.08385467529297 71.48680114746094 L 85.98030853271484 71.73589324951172 C 84.7403564453125 74.71902465820313 82.69386291503906 76.5 80.50594329833984 76.5 Z" stroke="none"/>
        <path d="M 80.50594329833984 76 C 82.48495483398438 76 84.35884094238281 74.33419799804688 85.51860046386719 71.54398345947266 L 85.72568511962891 71.04578399658203 L 86.25576019287109 70.94529724121094 C 90.60931396484375 70.11994171142578 94.59169769287109 67.67914581298828 97.46928405761719 64.07252502441406 C 98.90221405029297 62.27658462524414 100.0205688476563 60.25329971313477 100.793327331543 58.05887222290039 C 101.5940170288086 55.78509902954102 102 53.38958740234375 102 50.93885803222656 C 102 47.66057205200195 101.2483749389648 44.40371322631836 99.82637023925781 41.52041244506836 C 98.45231628417969 38.73429870605469 96.45371246337891 36.28682708740234 94.046630859375 34.44258499145508 L 93.68448638916016 34.16511535644531 L 93.65666961669922 33.70974349975586 C 93.38525390625 29.2653865814209 92.13578796386719 24.97604370117188 89.94295501708984 20.96087074279785 C 87.80994415283203 17.05521392822266 84.87117004394531 13.55864238739014 81.20829772949219 10.56827163696289 C 73.65048217773438 4.3980712890625 63.73048400878906 1 53.27567291259766 1 C 43.27487182617188 1 33.67499923706055 4.144385814666748 26.24445724487305 9.853928565979004 C 18.90981483459473 15.48978614807129 14.24591445922852 23.17865753173828 13.11191463470459 31.50418663024902 L 13.03778553009033 32.04838562011719 L 12.5387716293335 32.27781295776367 C 5.529242992401123 35.50037002563477 1 42.82527160644531 1 50.93885803222656 C 1 53.68972778320313 1.508157134056091 56.35737228393555 2.510371446609497 58.8676872253418 C 3.477200031280518 61.28935623168945 4.860599994659424 63.46356964111328 6.622171401977539 65.32991790771484 C 8.379914283752441 67.19221496582031 10.42524242401123 68.65365600585938 12.70134258270264 69.67366027832031 C 15.05318546295166 70.72760009765625 17.55135726928711 71.26200103759766 20.12648582458496 71.26200103759766 C 20.89509963989258 71.26200103759766 21.66921424865723 71.21304321289063 22.42732810974121 71.11648559570313 L 23.1724853515625 71.02158355712891 L 23.47120094299316 71.71080017089844 C 24.63525772094727 74.39656066894531 26.4830436706543 76 28.4140567779541 76 C 30.03658485412598 76 31.25817108154297 74.91310119628906 31.99724197387695 74.00131225585938 L 32.29740142822266 73.63099670410156 L 32.77408599853516 73.63099670410156 L 76.14548492431641 73.63099670410156 L 76.62211608886719 73.63099670410156 L 76.92228698730469 74.00124359130859 C 77.6614990234375 74.91307067871094 78.88328552246094 76 80.50594329833984 76 M 80.50594329833984 77 C 78.86232757568359 77 77.34914398193359 76.11569976806641 76.14548492431641 74.63099670410156 L 32.77408599853516 74.63099670410156 C 31.57064247131348 76.11569976806641 30.05767059326172 77 28.4140567779541 77 C 25.98119926452637 77 23.83401489257813 75.06254577636719 22.55367088317871 72.10847473144531 C 21.75787162780762 72.20983123779297 20.94807052612305 72.26200103759766 20.12648582458496 72.26200103759766 C 9.011042594909668 72.26200103759766 0 62.71455764770508 0 50.93885803222656 C 0 42.17599868774414 4.988328456878662 34.64842987060547 12.12105751037598 31.36922836303711 C 14.52691459655762 13.70621395111084 32.03461456298828 0 53.27567291259766 0 C 75.421875 0 93.50985717773438 14.9000997543335 94.65481567382813 33.64878463745117 C 99.71035766601563 37.52221298217773 103 43.823486328125 103 50.93885803222656 C 103 61.4244270324707 95.85525512695313 70.14322662353516 86.4420166015625 71.92780303955078 C 85.17192840576172 74.98344421386719 82.98745727539063 77 80.50594329833984 77 Z" stroke="none" fill="#3b3b3b"/>
      </g>
      <g id="패스_1" data-name="패스 1" transform="translate(61.66 32.016)" fill="none">
        <path d="M2.964,0A2.964,2.964,0,1,1,0,2.964,2.964,2.964,0,0,1,2.964,0Z" stroke="none"/>
        <path d="M 2.964401006698608 1.000000953674316 C 1.88123083114624 1.000000953674316 1.000000953674316 1.88123083114624 1.000000953674316 2.964401006698608 C 1.000000953674316 4.047571182250977 1.88123083114624 4.9288010597229 2.964401006698608 4.9288010597229 C 4.047571182250977 4.9288010597229 4.9288010597229 4.047571182250977 4.9288010597229 2.964401006698608 C 4.9288010597229 1.88123083114624 4.047571182250977 1.000000953674316 2.964401006698608 1.000000953674316 M 2.964401006698608 9.5367431640625e-07 C 4.601591110229492 9.5367431640625e-07 5.9288010597229 1.327210903167725 5.9288010597229 2.964401006698608 C 5.9288010597229 4.601591110229492 4.601591110229492 5.9288010597229 2.964401006698608 5.9288010597229 C 1.327210903167725 5.9288010597229 9.5367431640625e-07 4.601591110229492 9.5367431640625e-07 2.964401006698608 C 9.5367431640625e-07 1.327210903167725 1.327210903167725 9.5367431640625e-07 2.964401006698608 9.5367431640625e-07 Z" stroke="none" fill="#3b3b3b"/>
      </g>
      <g id="타원_7" data-name="타원 7" transform="translate(40 32)" fill="none" stroke="#3b3b3b" stroke-width="1">
        <circle cx="3" cy="3" r="3" stroke="none"/>
        <circle cx="3" cy="3" r="2.5" fill="none"/>
      </g>
      <circle id="타원_8" data-name="타원 8" cx="10.5" cy="10.5" r="10.5" transform="translate(19 35)" fill="#f1a794"/>
      <circle id="타원_10" data-name="타원 10" cx="10.5" cy="10.5" r="10.5" transform="translate(67 38)" fill="#f1a794"/>
    </g>
    <text id="_" data-name="ㅅ" transform="translate(-2113 2126)" fill="#3b3b3b" font-size="11" font-family="H2hdrM, HYHeadLine"><tspan x="-5.5" y="0">ㅅ</tspan></text>
  </g>
</svg>
